<svg id="Capa_1" enable-background="new 0 0 512.054 512.054" height="512" viewBox="0 0 512.054 512.054" width="512" xmlns="http://www.w3.org/2000/svg"><g><g><g><g><path d="m381.222 371.785-67.405-3.252h-115.698l-67.405 3.252c-19.767 26.23-31.485 58.867-31.485 94.242v46h313.479v-46c-.001-35.375-11.719-68.012-31.486-94.242z" fill="#72869e"/></g><g><path d="m.968 512.027 100.199-152.766 30.048 12.524c-19.767 26.23-31.485 58.867-31.485 94.242v46z" fill="#c21d44"/></g><g><path d="m255.968 309.288c-32.631 0-62.933 9.972-88.026 27.034l33.765 33.179 107.154.388 34.741-33.833c-25.015-16.9-55.172-26.768-87.634-26.768z" fill="#d15573"/></g><g><path d="m332.791 346.527-123.041-.388-21.758-21.381c-6.986 3.368-13.686 7.236-20.049 11.563l33.765 33.179 107.154.388z" fill="#c21d44"/></g><g><path d="m214.466 313.813 26.502 24.661h30l25.502-24.66c-26.538-6.598-54.276-6.693-80.859-.278z" fill="#f5d9ab"/></g><g><path d="m244.966 313.813c8.481-2.099 17.103-3.549 25.757-4.325-18.797-1.699-37.829-.248-56.257 4.325l26.502 24.661h30l.245-.237z" fill="#f0b582"/></g><g><path d="m128.415 23.431v111.809c0-45.881 24.62-88.234 64.489-110.939l1.527-.87z" fill="#d15573"/></g><g><path d="m149.776 23.431h-21.362v111.809c0-25.593 7.667-50.083 21.362-70.682z" fill="#c21d44"/></g><g><path d="m383.734 23.431v111.809c0-45.881-24.62-88.234-64.489-110.939l-1.527-.87z" fill="#d15573"/></g><g><path d="m354.756 23.431h-37.038l1.527.87c39.869 22.705 64.489 65.058 64.489 110.939v-76.125c-7.372-13.461-17.161-25.575-28.978-35.684z" fill="#c21d44"/></g><g><path d="m256.074 7.581c-44.352 0-83.42 22.617-106.302 56.947l106.197 35.749 106.407-35.749c-22.881-34.33-61.95-56.947-106.302-56.947z" fill="#d15573"/></g><g><path d="m362.377 64.528c-4.615-6.925-9.9-13.363-15.743-19.245l-90.664 30.46-67.618-22.763c20.394-24.172 49.601-40.662 82.669-44.519-48.328-5.985-95.835 17.379-121.249 56.066l106.198 35.749 14.962-5.026z" fill="#c21d44"/></g><g><path d="m362.377 64.528-106.407 35.748-106.198-35.749c-13.493 20.244-21.357 44.56-21.357 70.713v90.787l52.553 52.766h8.213v-76.638l-30.678-36.128v-60.283l97.465 30.283 97.678-30.283v60.283l-30.678 36.128v76.638h8.213l52.553-52.766v-90.787c0-26.153-7.864-50.469-21.357-70.712z" fill="#72869e"/></g><g><path d="m345.564 233.581v-22.421l30.678-36.128v-101.524l-120.273 40.753-92.053-30.602c2.025-4.16 4.21-8.223 6.524-12.174l-20.667-6.958c-13.493 20.244-21.357 44.56-21.357 70.713v67.02 23.766l52.553 52.766h8.213v-23.447-.32h-.319l-37.852-38.005v-81.78c0-13.78 7.493-29.496 7.493-29.496l97.465 30.283 97.678-29.738v59.738l-30.678 36.128v45.867 30.771h8.213l52.553-52.766v-30.771z" fill="#536275"/></g><g><path d="m189.177 251.891c17.241 16.479 40.424 26.709 66.052 26.899 26.242.195 50.107-9.983 67.739-26.677v-49.959l30.678-36.128v-60.283l-97.708 30.184-97.434-30.184v60.283l30.678 36.128z" fill="#f5d9ab"/></g><g><path d="m275.91 270.136c-25.628-.19-48.811-10.42-66.052-26.899l.004-49.736-30.678-36.128v-45.222l-20.681-6.407v60.283l30.678 36.128-.004 49.736c17.241 16.479 40.424 26.709 66.052 26.899 17.6.13 34.126-4.41 48.424-12.447-8.801 2.533-18.111 3.864-27.743 3.793z" fill="#f0b582"/></g><g><path d="m383.168 495.797v-75.081h-22.2v75.081h-187.489v-75.081h-22.2v75.081h-30.072v-29.77c0-35.375 11.719-68.012 31.485-94.242l67.405-3.252h-21.978l-67.405 3.252c-19.767 26.23-31.485 58.867-31.485 94.242v46h313.479v-16.23z" fill="#536275"/></g><g><path d="m135.968 306.202 71.998 67.824-17.789 23.511-88.405-39.199z" fill="#d15573"/></g><g><path d="m133.773 347.998 17.783-27.112-15.588-14.684-34.196 52.136 88.406 39.199 13.896-18.368z" fill="#c21d44"/></g><g><path d="m511.468 512.027-100.198-152.766-30.048 12.524c19.767 26.23 31.485 58.867 31.485 94.242v46z" fill="#c21d44"/></g><g><path d="m376.468 306.202-71.998 67.824 17.789 23.511 88.405-39.199z" fill="#d15573"/></g><g><path d="m348.998 362.813 39.93-37.615-12.46-18.997-72.212 67.824 17.789 23.511.16-.071.054.071 32.653-14.573c-.091-7.398-2.256-14.288-5.914-20.15z" fill="#c21d44"/></g><g><circle cx="316.053" cy="383.452" fill="#f6e23d" r="15.085"/></g><g><circle cx="195.968" cy="383.452" fill="#f6e23d" r="15.085"/></g><g><path d="m256.362 410.346 52.5 52.5-22.429 22.429-29.922-29.923-30.529 30.529-22.365-22.365z" fill="#c4e5f9"/></g><g><g><path d="m211.27 450.363h24.102v31.629h-24.102z" fill="#a4d7f5" transform="matrix(.707 -.707 .707 .707 -264.228 294.452)"/></g></g><g><path d="m195.994 46.027h15v15h-15z" fill="#fff"/></g><g><path d="m225.931 46.027h15v15h-15z" fill="#fff"/></g></g></g><g><path d="m196.734 286.269v-18.613c34.444 24.721 84.343 24.599 118.8.131v18.482h18.83l56.943-57.174v-93.894-119.322h-71.716c-18.934-10.11-40.536-15.852-63.458-15.852s-44.524 5.742-63.458 15.852h-71.715v119.322 30.79h15.002v-30.79c0-22.549 6.248-43.665 17.096-61.715l102.969 34.661 103.18-34.665c10.85 18.051 17.098 39.168 17.098 61.719v87.698l-45.77 45.956v-63.977l30.681-36.132v-73.223l-105.187 32.61-104.978-32.617v73.229l30.681 36.132v63.977l-45.77-45.956v-41.907h-15.002v48.103l56.943 57.174h18.831zm-60.772-255.388h34.303c-14.116 11.64-25.835 26.085-34.303 42.472zm120.069 61.439-94.081-31.67c22.031-27.775 56.061-45.622 94.184-45.622 38.12 0 72.148 17.845 94.179 45.616zm85.971-61.439h34.303v42.472c-8.468-16.387-20.187-30.832-34.303-42.472zm-175.949 132.354v-47.349l64.865 20.154h-34.897v15.002h15.002v14.948h15.002v-14.948h15.002v-11.861l14.999 4.66 15.004-4.652v11.853h15.002v14.948h15.002v-14.948h15.002v-15.002h-34.848l65.029-20.161v47.356l-30.681 36.132v49.389c-32.567 29.789-86.285 29.915-118.8-.198v-49.191z"/><path d="m226.024 211.219h60.006v15.002h-60.006z"/><path d="m502.583 512.027h9.47v-12.914l-134.146-204.525-34.392 32.398c-26.181-16.513-56.315-25.22-87.488-25.22-31.065 0-61.08 8.636-87.192 25.029l-34.188-32.207-134.647 205.287v12.152h9.97l94.343-143.839 15.107 6.598c-18.117 27.019-27.65 58.365-27.65 91.237v46.005h15.002v-46.005c0-30.779 9.192-60.083 26.639-85.127l53.874 23.372c2.689 1.132 5.64 1.759 8.736 1.759 12.454 0 22.587-10.133 22.587-22.588 0-2.66-.466-5.213-1.314-7.586h77.552c-.848 2.372-1.314 4.925-1.314 7.586 0 12.455 10.133 22.588 22.587 22.588 3.231 0 6.302-.687 9.084-1.914l53.558-23.05c17.37 25.008 26.522 54.254 26.522 84.959v46.005h15.002v-46.005c0-32.798-9.494-64.086-27.537-91.068l15.494-6.767zm-222.017-193.227-12.571 12.156h-24.019l-12.976-12.075c8.212-1.385 16.574-2.114 25.027-2.114 8.284 0 16.482.701 24.539 2.033zm-67.197 4.166 24.706 22.99h35.987l23.97-23.178c11.922 3.488 23.382 8.473 34.153 14.88l-24.619 23.192h-102.577l-24.815-23.376c10.486-6.203 21.619-11.063 33.195-14.508zm-75.988-5.193 48.365 45.561c-6.906 3.544-11.758 10.536-12.264 18.692l-60.822-26.563zm58.64 73.252c-4.183 0-7.586-3.403-7.586-7.586s3.403-7.586 7.586-7.586 7.586 3.403 7.586 7.586c-.001 4.183-3.403 7.586-7.586 7.586zm112.511-7.586c0-3.851 4.053-6.708 4.053-6.708 4.829-2.708 11.263 1.129 11.118 6.708-.177 9.969-15.171 9.97-15.171 0zm30.138-1.238c-.441-8.125-5.196-15.118-12.009-18.73l48.512-45.699 24.721 37.69z"/><path d="m143.826 420.707h15.002v91.32h-15.002z"/><path d="m353.537 496.025h15.002v16.002h-15.002z"/><path d="m353.537 466.022h15.002v15.002h-15.002z"/><path d="m353.537 420.707h15.002v30.314h-15.002z"/><path d="m193.085 463.532 32.953 32.954 30.533-30.532 29.925 29.926 33.039-33.039-63.135-63.135zm105.233-.691-11.823 11.823-29.925-29.926-30.533 30.532-11.781-11.781 42.185-42.526z"/></g></g></svg>