<svg id="Capa_1" enable-background="new 0 0 512 512" height="512" viewBox="0 0 512 512" width="512" xmlns="http://www.w3.org/2000/svg"><g><g><path d="m43.903 229.67c0-59.344 13.037-115.135 55-157.098 41.962-41.962 97.753-65.072 157.097-65.072 59.343 0 115.135 23.11 157.097 65.072 41.962 41.963 54.999 97.754 54.999 157.098z" fill="#77718c"/><path d="m276 8.398c-6.612-.586-13.282-.898-20-.898-59.344 0-115.135 23.11-157.097 65.072-41.963 41.963-55 97.754-55 157.098h40c0-59.343 13.037-115.135 55-157.098 37.211-37.212 85.302-59.582 137.097-64.174z" fill="#5c586f"/><path d="m468.097 229.67c40.477 219.85-91.195 231.174-91.195 231.174h-241.804s-131.672-11.324-91.195-231.174z" fill="#77718c"/><path d="m83.903 229.67h-40c-40.477 219.85 91.195 231.174 91.195 231.174h40s-131.672-11.324-91.195-231.174z" fill="#5c586f"/><path d="m75.724 205.424c11.856-88.975 88.048-157.622 180.276-157.622s168.42 68.647 180.276 157.622z" fill="#5bd6fd"/><circle cx="437.874" cy="249.82" fill="#ffbd86" r="42.604"/><path d="m332.863 394.541h-153.726s-58.121 36.73-58.121 109.959h43.234l91.75-15.021 91.751 15.021h43.234c0-73.229-58.122-109.959-58.122-109.959z" fill="#fed2a4"/><path d="m204.137 394.541h-25s-58.121 36.729-58.121 109.959h25c-.001-73.23 58.121-109.959 58.121-109.959z" fill="#ffbd86"/><path d="m179.137 394.541h37.171v84.611h-37.171z" fill="#f9f097"/><path d="m295.692 394.541h37.171v84.611h-37.171z" fill="#f9f097" transform="matrix(-1 0 0 -1 628.556 873.692)"/><path d="m207.366 54.386c-62.656 17.346-111.731 67.374-127.709 130.58-1.689 6.68-3.008 13.507-3.934 20.458h30c8.235-61.802 47.513-113.788 101.642-139.779v-11.259z" fill="#00c4fc"/><path d="m437.878 229.67c0 100.448-81.43 181.878-181.878 181.878s-181.878-81.43-181.878-181.878c0-8.22.544-16.318 1.602-24.246 9.892-10.607 65.887-64.659 180.276-64.659s170.385 54.052 180.276 64.659c1.058 7.928 1.602 16.026 1.602 24.246z" fill="#fed2a4"/><path d="m104.122 229.67c0-8.22.544-16.318 1.602-24.246 1.283-9.63 3.329-19.018 6.058-28.11-20.273 12.189-32.016 23.776-36.058 28.11-.081.606-.138 1.219-.213 1.828-.459-.016-.913-.036-1.385-.036-23.53 0-42.604 19.074-42.604 42.604s19.075 42.604 42.604 42.604c3.977 0 7.473-.556 10.555-1.576 25.125 70.35 92.337 120.7 171.319 120.7h.03c4.818 0 10.302-.237 14.97-.619-93.43-7.63-166.878-85.863-166.878-181.259z" fill="#ffbd86"/><g fill="#f9f097"><circle cx="85.242" cy="301.49" r="21.998"/><circle cx="426.758" cy="301.49" r="21.998"/><path d="m297.156 34.965-28.415 8.862c-8.297 2.588-17.185 2.588-25.482 0l-28.415-8.862c-10.182-3.176-20.523 4.432-20.523 15.097v72.493c0 10.483 4.63 20.43 12.65 27.181l36.528 30.745c7.225 6.081 17.777 6.081 25.002 0l36.528-30.745c8.02-6.75 12.65-16.698 12.65-27.181v-72.493c0-10.666-10.342-18.273-20.523-15.097z"/></g><ellipse cx="256" cy="109.639" fill="#ff748f" rx="22.053" ry="31.125"/><path d="m347.751 504.5c-.127-28.02-22.876-50.697-50.926-50.697-16.708 0-31.537 8.046-40.825 20.474-9.287-12.428-24.116-20.474-40.825-20.474-28.05 0-50.799 22.677-50.926 50.697z" fill="#ff748f"/><g fill="#ffbd86"><ellipse cx="156.097" cy="275.316" rx="36.862" ry="29.355"/><ellipse cx="355.903" cy="275.316" rx="36.862" ry="29.355"/></g></g><g><path d="m177.588 224.518c-4.142 0-7.499 3.357-7.499 7.499v15.067c0 4.142 3.358 7.499 7.499 7.499 4.142 0 7.499-3.358 7.499-7.499v-15.067c0-4.142-3.357-7.499-7.499-7.499z"/><path d="m334.412 224.518c-4.142 0-7.499 3.357-7.499 7.499v15.067c0 4.142 3.358 7.499 7.499 7.499 4.142 0 7.499-3.358 7.499-7.499v-15.067c0-4.142-3.357-7.499-7.499-7.499z"/><path d="m281.6 240.982c-3.123-2.721-7.86-2.396-10.581.726-7.938 9.11-22.076 9.138-30.038 0-2.721-3.123-7.458-3.448-10.58-.727-3.123 2.721-3.448 7.458-.727 10.58 13.933 15.988 38.735 15.971 52.653 0 2.721-3.121 2.396-7.858-.727-10.579z"/><path d="m256 148.3c16.57 0 29.55-16.964 29.55-38.621s-12.98-38.621-29.55-38.621-29.549 16.965-29.549 38.621 12.979 38.621 29.549 38.621zm0-62.243c7.752 0 14.551 11.038 14.551 23.623s-6.8 23.622-14.551 23.622-14.551-11.038-14.551-23.622 6.8-23.623 14.551-23.623z"/><path d="m475.341 216.659c-2.158-64.301-20.795-113.183-56.957-149.345-89.746-89.746-235.011-89.758-324.769 0-36.162 36.161-54.799 85.044-56.957 149.347-14.076 15.882-16.605 38.7-6.417 57.236-5.901 66.224 5.175 117.469 32.959 152.318 18.837 23.628 40.914 34.122 55.974 38.762-3.493 11.801-5.644 24.969-5.644 39.524 0 4.142 3.358 7.499 7.499 7.499h269.942c4.142 0 7.499-3.358 7.499-7.499 0-14.557-2.15-27.727-5.641-39.527 14.544-4.488 35.803-14.499 54.302-36.721 2.65-3.183 2.218-7.912-.966-10.562-3.182-2.649-7.911-2.218-10.561.966-16.668 20.021-36.178 28.605-47.833 32.163-11.473-27.262-29.551-45.544-40.813-55.005 28.785-15.767 52.761-38.487 70.072-66.448 18.56 6.481 39.206-7.103 39.206-27.855-.006-.119.002-2.483-.404-4.901 4.387-1.688 8.595-4.075 12.031-6.666 2.123 42.074-3.473 77.126-16.688 104.369-1.807 3.726-.252 8.213 3.474 10.02 3.727 1.807 8.213.252 10.02-3.474 15.93-32.839 21.673-75.551 17.093-126.969 10.156-18.481 7.694-41.307-6.421-57.232zm-25.725 66.253c-2.524-3.113-5.856-5.86-9.748-7.803 4.6-18.68 6.515-38.936 4.948-59.67 28.136 5.684 37.938 41.103 16.512 60.474-3.341 3.009-7.204 5.374-11.712 6.999zm-22.875 33.096c-8.042 0-14.497-6.58-14.497-14.498 0-17.376 26.107-20.258 28.813-2.168.219 1.443.18 2.268.18 2.168.001 8.317-6.901 14.498-14.496 14.498zm-319.319 4.956c7.942-9.056 7.313-19.337 7.333-19.453 0-15.828-12.509-28.639-27.922-29.454-4.944-19.791-6.567-41.189-3.926-63.254 36.928-38.074 97.193-51.998 116.681-55.637 2.418 2.408 3.138 2.738 39.083 33.086 9.921 8.351 24.533 8.522 34.658 0 32.923-27.859 36.142-30.17 39.097-33.099 69.334 12.447 106.59 45.494 116.67 55.676 2.594 21.702 1.103 43.088-3.929 63.23-24.798 1.334-36.592 30.654-20.591 48.903-67.349 109.925-228.228 111.383-297.154.002zm180.768 95.371v30.627c-12.101 1.829-23.414 7.449-32.189 15.988-8.472-8.243-19.728-14.103-32.189-15.988v-30.628c21.299 3.641 43.383 3.588 64.378.001zm37.167-10.396v47.786c-7.027-3.947-14.786-6.281-22.169-7.075v-33.514c7.951-2.043 14.855-4.348 22.169-7.197zm-138.713 0c7.576 2.984 14.959 5.345 22.169 7.197v33.514c-7.16.769-15.005 3.051-22.169 7.075zm3.025 63.702c19.221-14.006 46.085-9.927 60.324 9.128 2.419 3.238 5.905 2.985 6.007 3.01.1-.024 3.641.157 6.007-3.01 9.448-12.643 24.262-18.676 39.009-17.255 18.974 1.809 35.024 16.209 38.521 35.487h-167.074c2.054-11.369 8.477-20.99 17.206-27.36zm-150.625-219.794c0-16.973 12.108-31.171 28.141-34.408-1.487 19.673.096 39.962 4.948 59.67-3.792 1.893-6.988 4.471-9.748 7.803-14.134-5.075-23.341-18.431-23.341-33.065zm37.318 63.085c-8.591-6.556-7.05-20.223 3.086-24.692 10.043-4.425 21.5 3.675 20.209 14.92-1.278 11.094-14.291 16.802-23.295 9.772zm135.123-271.022c1.204.202-.543-.223 29.543 9.124 9.454 2.948 19.808 3.158 29.945 0l28.412-8.861c5.232-1.634 10.788 2.211 10.788 7.936v72.486c0 7.786-3.272 14.93-8.228 19.822-1.506 1.516.626-.421-38.274 32.36-4.444 3.741-10.897 3.741-15.342 0-39.086-32.919-37.062-31.128-38.446-32.53-5.315-5.437-8.056-12.46-8.056-19.652 0-78.534-.118-72.986.227-74.437.991-4.178 5.119-6.964 9.431-6.248zm113.687 80.684v-52.973c48.146 20.829 85.412 62.862 99.33 115.19-19.169-14.963-52.65-35.009-102.867-45.151 2.3-5.321 3.537-11.111 3.537-17.066zm-220.951-44.675c83.884-83.884 219.662-83.896 303.558 0 31.017 31.017 48.077 72.613 51.938 126.822-5.204-2.528-10.829-4.132-16.673-4.73-10.498-66.577-55.861-122.283-117.872-146.627-.255-1.296 1.948-13.634-9.498-22.054-4.127-3.036-8.996-4.58-13.885-4.552-6.113.088-7.438 1.552-35.282 9.936-6.653 2.075-13.924 2.211-21.014 0l-28.412-8.861c-7.33-2.281-14.875-.848-20.755 3.477-11.338 8.341-9.263 20.856-9.498 22.053-22.652 8.88-43.148 21.92-60.986 38.808-3.008 2.847-3.137 7.594-.29 10.601 2.848 3.008 7.594 3.137 10.601.29 14.977-14.179 31.989-25.398 50.675-33.466v52.979c0 5.955 1.237 11.744 3.536 17.066-50.227 10.144-83.711 30.196-102.878 45.16 5.808-21.802 15.847-42.406 29.586-60.489 2.506-3.298 1.864-8.002-1.434-10.508-3.298-2.505-8.002-1.863-10.508 1.434-18.873 24.84-31.329 54.056-36.174 84.754-5.844.598-11.471 2.202-16.674 4.73 3.862-54.211 20.922-95.806 51.939-126.823zm-60.084 212.024c3.631 2.723 7.772 5.025 12.031 6.667-.291 1.723-.361 3.19-.404 4.901 0 20.859 20.59 34.369 39.211 27.852 16.618 26.752 40.785 50.331 70.076 66.447-11.261 9.464-29.347 27.756-40.824 55.026-27.015-8.137-86.216-39.891-80.09-160.893zm127.508 120.111v55.809c-8.086 9.166-12.863 19.796-14.375 31.139h-28.527c1.943-33.746 17.618-64.088 42.902-86.948zm183.085 86.947c-1.522-11.382-6.435-22.257-14.375-31.139v-55.809c25.268 22.846 40.96 53.186 42.902 86.948z"/></g></g></svg>