<svg id="Capa_1" enable-background="new 0 0 511 511" height="512" viewBox="0 0 511 511" width="512" xmlns="http://www.w3.org/2000/svg" xmlns:xlink="http://www.w3.org/1999/xlink"><linearGradient id="lg1"><stop offset=".00000036422" stop-color="#a8abff"/><stop offset="1" stop-color="#fac8ff"/></linearGradient><linearGradient id="SVGID_1_" gradientUnits="userSpaceOnUse" x1="132.5" x2="132.5" xlink:href="#lg1" y1="297.5" y2="440.045"/><linearGradient id="SVGID_2_" gradientUnits="userSpaceOnUse" x1="313.5" x2="313.5" xlink:href="#lg1" y1="131.5" y2="265.5"/><linearGradient id="SVGID_3_" gradientUnits="userSpaceOnUse" x1="359.5" x2="359.5" y1="295.5" y2="449.5"><stop offset=".00000083866" stop-color="#96d1f3"/><stop offset="1" stop-color="#ccfff4"/></linearGradient><linearGradient id="Outline_1_" gradientUnits="userSpaceOnUse" x1="255.5" x2="255.5" y1="18" y2="493"><stop offset=".00000011981" stop-color="#174fa3"/><stop offset="1" stop-color="#b044af"/></linearGradient><g><g id="Filled_44_"><path d="m473.5 485.5h-436c-16.569 0-30-13.431-30-30v-362h496v362c0 16.569-13.431 30-30 30z" fill="#fff"/><path d="m7.5 25.5h496v68h-496z" fill="#fff"/><path d="m132.5 440.045-67.439-68.347c-16.794-17.02-16.741-44.563.118-61.517 16.858-16.954 44.141-16.901 60.935.119l6.385 6.471 6.385-6.471c16.794-17.02 44.077-17.074 60.935-.119 16.86 16.954 16.913 44.497.118 61.517z" fill="url(#SVGID_1_)"/><path d="m313.5 131.5 21.631 44.11 48.369 7.073-35 34.335 8.262 48.482-43.262-22.89-43.262 22.89 8.262-48.482-35-34.335 48.369-7.073z" fill="url(#SVGID_2_)"/><path d="m224.5 165.5c0-19.33-15.67-29-35-29v31l-74 67 22 33 25-11c10.203 3.826 21.538 3.231 31.284-1.642l10.716-5.358s11.127 7.932 11 12c-1.209 38.654-80 77-45 148h120c13.167-27.651 20-64.368 20-94.995 0-60.043-33.055-120.686-86-149.005z" fill="#fff"/><path d="m159.5 409.5c-16.569 0-30 13.431-30 30v10h200v-10c0-16.569-13.431-30-30-30z" fill="#fff"/><path d="m434.494 343.5h-25.994v-16c0-17.673-14.327-32-32-32l-13 48h-34v-16h-60v122h60v-16h17l18 10h42.535c14.085 0 26.273-9.798 29.3-23.554l12.809-58.223c2.059-9.359-5.067-18.223-14.65-18.223z" fill="url(#SVGID_3_)"/></g><path id="Outline_44_" d="m0 18v437.5c0 20.678 16.822 37.5 37.5 37.5h436c20.678 0 37.5-16.822 37.5-37.5v-437.5zm496 437.5c0 12.406-10.094 22.5-22.5 22.5h-436c-12.406 0-22.5-10.094-22.5-22.5v-354.5h481zm0-369.5h-481v-53h481zm-407.5-19h-15v-15h15zm-30 0h-15v-15h15zm60 0h-15v-15h15zm3.5 373.087v16.913h140 7.5 67.5v-16h7.557l18 10h44.479c17.469 0 32.871-12.382 36.625-29.442l12.809-58.223c1.472-6.691-.146-13.592-4.438-18.932-4.292-5.341-10.685-8.403-17.536-8.403h-18.496v-8.5c0-21.78-17.72-39.5-39.5-39.5h-5.739l-13 48h-20.761v-16h-19.075c.046-1.849.075-3.685.075-5.49 0-20.606-3.734-41.023-10.55-60.214l6.05-3.2 53.211 28.154-10.159-59.624 42.993-42.181-59.421-8.685-26.624-54.295-26.624 54.295-35.904 5.245c-6.097-4.839-12.514-9.224-19.229-13.067-2.222-19.291-18.637-31.938-42.243-31.938h-7.5v35.173l-76.327 69.107 29.081 43.622 28.112-12.369c11.318 3.384 23.641 2.35 34.269-2.965l6.491-3.246c1.87 1.58 3.513 3.166 4.303 4.186-.873 9.765-8.316 20.737-16.974 32.342-19.047-9.023-42.221-5.207-57.401 10.179l-1.054 1.067-1.051-1.064c-9.534-9.664-22.232-15.003-35.756-15.03-.036-.001-.071-.001-.107-.001-13.486 0-26.17 5.286-35.726 14.892-19.716 19.833-19.779 52.166-.14 72.075zm215-89.087h32.239l12.827-47.362c10.837 2.527 18.934 12.266 18.934 23.862v23.5h33.494c2.284 0 4.415 1.021 5.846 2.801s1.97 4.08 1.479 6.311l-12.809 58.224c-2.252 10.234-11.493 17.664-21.975 17.664h-40.592l-18-10h-11.443zm-75 91h-125v-2.5c0-12.406 10.094-22.5 22.5-22.5h102.5zm60-107v107h-45v-107zm-25.136-152.539 16.636-33.926 16.636 33.925 37.319 5.454-27.007 26.499 6.36 37.337-33.308-17.625-11.656 6.166c-8.946-19.921-21.319-38.099-36.344-53.25zm-97.899 126.694c12.096-16.01 23.521-31.132 24.031-47.416.063-2 .258-8.086-14.145-18.348l-3.673-2.616-14.753 7.377c-7.854 3.928-17.074 4.411-25.289 1.326l-2.86-1.074-22.03 9.693-14.919-22.378 71.673-64.892v-26.194c8.593 1.466 20 6.182 20 20.867v4.494l3.963 2.119c49.069 26.245 82.037 83.47 82.037 142.397 0 1.802-.034 3.641-.084 5.49h-40.916v82h-86.709c-16.962-39.055 3.682-66.386 23.674-92.845zm-128.468 6.314c6.717-6.752 15.624-10.468 25.09-10.468h.075c9.49.021 18.407 3.772 25.112 10.569l11.726 11.872 11.729-11.875c9.917-10.052 24.68-13.079 37.447-8.366-18.316 24.71-37.036 54.765-22.524 94.808-14.511.134-27.072 8.548-33.187 20.739l-55.566-56.314c-13.887-14.079-13.842-36.942.098-50.965zm358.503-77.469h-15v-15h15zm0 50h-15v-15h15zm25-25h-15v-15h15zm-65-15h15v15h-15z" fill="url(#Outline_1_)"/></g></svg>