<svg height="512pt" viewBox="-88 0 512 512.00001" width="512pt" xmlns="http://www.w3.org/2000/svg"><path d="m8.828125 512v-132.414062c-.007813-44.050782 32.464844-81.367188 76.09375-87.445313h165.605469c43.628906 6.078125 76.101562 43.394531 76.09375 87.445313v132.414062" fill="#f8cf26"/><path d="m145.65625 370.757812h44.136719v75.035157h-44.136719zm0 0" fill="#fceaa1"/><path d="m88.277344 282.484375h158.894531v35.308594c0 43.878906-35.570313 79.449219-79.445313 79.449219-43.878906 0-79.449218-35.570313-79.449218-79.449219zm0 0" fill="#fceaa1"/><path d="m70.621094 361.929688c19.5 0 35.308594-15.808594 35.308594-35.308594v-34.480469h-21.007813c-18.734375 2.609375-36.132813 11.1875-49.609375 24.460937v10.019532c0 19.5 15.808594 35.308594 35.308594 35.308594zm0 0" fill="#f2f2f2"/><path d="m264.828125 361.929688c-19.5 0-35.3125-15.808594-35.3125-35.308594v-34.480469h21.011719c18.734375 2.609375 36.132812 11.1875 49.609375 24.460937v10.019532c0 19.5-15.808594 35.308594-35.308594 35.308594zm0 0" fill="#f2f2f2"/><path d="m264.828125 459.035156h61.792969v52.964844h-61.792969zm0 0" fill="#da4836"/><path d="m8.828125 459.035156h61.792969v52.964844h-61.792969zm0 0" fill="#da4836"/><path d="m229.515625 291.308594v26.484375c0 34.128906-27.664063 61.792969-61.792969 61.792969-34.125 0-61.792968-27.664063-61.792968-61.792969v-26.484375zm0 0" fill="#f2c09a"/><g fill="#cc9c72"><path d="m184.410156 317.792969h-33.371094c-15.710937-.039063-31.1875-3.863281-45.109374-11.148438v11.148438c.015624 5.597656.796874 11.164062 2.3125 16.550781 13.332031 6.507812 27.964843 9.90625 42.796874 9.929688h33.371094c14.832032-.023438 29.464844-3.421876 42.792969-9.929688 1.519531-5.386719 2.296875-10.953125 2.3125-16.550781v-11.148438c-13.921875 7.285157-29.394531 11.109375-45.105469 11.148438zm0 0"/><path d="m273.65625 150.070312h17.652344c14.628906 0 26.484375 11.855469 26.484375 26.480469s-11.855469 26.484375-26.484375 26.484375h-17.652344zm0 0"/><path d="m70.621094 203.035156h-26.484375c-14.625 0-26.480469-11.855468-26.480469-26.484375 0-14.625 11.855469-26.480469 26.480469-26.480469h26.484375zm0 0"/></g><path d="m184.410156 317.792969h-33.371094c-28.628906 0-55.832031-12.511719-74.460937-34.25-15.238281-17.773438-23.613281-40.414063-23.613281-63.824219v-96.132812c0-63.378907 51.378906-114.757813 114.757812-114.757813 63.382813 0 114.761719 51.378906 114.761719 114.757813v96.132812c0 23.410156-8.378906 46.050781-23.617187 63.824219-18.628907 21.738281-45.828126 34.25-74.457032 34.25zm0 0" fill="#f2c09a"/><path d="m103.0625 283.542969c-15.238281-17.773438-23.613281-40.414063-23.613281-63.824219v-96.132812c.027343-58.234376 43.667969-107.21875 101.515625-113.9375-62.679688-7.558594-119.621094 37.128906-127.179688 99.8125-.5625 4.6875-.835937 9.402343-.820312 14.125v96.132812c.003906 54.164062 43.914062 98.070312 98.074218 98.074219h26.484376c-28.632813 0-55.832032-12.511719-74.460938-34.25zm0 0" fill="#e8b894"/><path d="m158.898438 220.6875h8.824218c9.753906 0 17.65625-7.902344 17.65625-17.652344v-35.3125h44.136719c4.875 0 8.828125-3.949218 8.828125-8.824218 0-4.878907-3.953125-8.828126-8.828125-8.828126h-44.136719c-9.75 0-17.652344 7.902344-17.652344 17.652344v35.3125h-8.828124c-4.875 0-8.828126 3.953125-8.828126 8.828125s3.949219 8.824219 8.828126 8.824219zm0 0"/><path d="m105.929688 167.722656h35.3125c4.875 0 8.828124-3.949218 8.828124-8.824218 0-4.878907-3.953124-8.828126-8.828124-8.828126h-35.3125c-4.875 0-8.824219 3.949219-8.824219 8.828126 0 4.875 3.949219 8.824218 8.824219 8.824218zm0 0"/><path d="m132.414062 185.378906c0 4.875-3.953124 8.828125-8.828124 8.828125s-8.828126-3.953125-8.828126-8.828125 3.953126-8.828125 8.828126-8.828125 8.828124 3.953125 8.828124 8.828125zm0 0"/><path d="m220.691406 185.378906c0 4.875-3.953125 8.828125-8.828125 8.828125s-8.828125-3.953125-8.828125-8.828125 3.953125-8.828125 8.828125-8.828125 8.828125 3.953125 8.828125 8.828125zm0 0"/><path d="m176.550781 273.65625h-17.652343c-4.875 0-8.828126 3.949219-8.828126 8.828125 0 4.875 3.953126 8.824219 8.828126 8.824219h17.652343c4.875 0 8.828125-3.949219 8.828125-8.824219s-3.953125-8.828125-8.828125-8.828125zm0 0"/><path d="m267.386719 286.976562c15.445312-19.015624 23.890625-42.761718 23.921875-67.257812v-7.855469c19.503906 0 35.3125-15.808593 35.3125-35.3125 0-19.5-15.808594-35.308593-35.3125-35.308593v-17.65625c.003906-68.253907-55.328125-123.585938-123.585938-123.585938-68.253906 0-123.585937 55.332031-123.585937 123.585938v17.65625c-19.5 0-35.308594 15.808593-35.308594 35.308593 0 19.503907 15.808594 35.3125 35.308594 35.3125v7.855469c.035156 24.496094 8.480469 48.242188 23.925781 67.257812-40.402344 12.796876-67.910156 50.230469-68.0625 92.609376v132.414062h17.65625v-44.136719h35.308594v44.136719h17.65625v-97.105469h-17.65625v35.3125h-35.308594v-70.621093c.007812-14.101563 3.796875-27.945313 10.972656-40.085938 6.941406 23.191406 31.363282 36.363281 54.554688 29.421875 9.304687-2.785156 17.421875-8.582031 23.074218-16.480469 10.976563 19.4375 30.492188 32.546875 52.640626 35.363282v44.746093h17.652343v-44.746093c22.148438-2.816407 41.660157-15.925782 52.640625-35.363282 14.085938 19.683594 41.464844 24.21875 61.148438 10.132813 7.898437-5.652344 13.695312-13.769531 16.480468-23.074219 7.171876 12.140625 10.960938 25.984375 10.972657 40.085938v70.621093h-35.308594v-35.3125h-17.65625v97.105469h17.65625v-44.136719h35.308594v44.136719h17.65625v-132.414062c-.15625-42.378907-27.664063-79.804688-68.0625-92.609376zm41.578125-110.425781c0 9.75-7.902344 17.65625-17.652344 17.65625v-35.308593c9.75 0 17.652344 7.902343 17.652344 17.652343zm-282.480469 0c0-9.75 7.902344-17.652343 17.652344-17.652343v35.308593c-9.75 0-17.652344-7.90625-17.652344-17.65625zm35.308594 26.484375v-79.449218c0-58.503907 47.425781-105.929688 105.929687-105.929688s105.933594 47.425781 105.933594 105.929688v96.132812c.003906 49.285156-39.945312 89.242188-89.230469 89.246094-.003906 0-.011719 0-.015625 0h-33.371094c-49.285156.003906-89.242187-39.945313-89.246093-89.226563 0-.007812 0-.011719 0-.019531zm35.3125 123.585938c0 14.625-11.859375 26.480468-26.484375 26.480468s-26.484375-11.855468-26.484375-26.480468v-6.066406c10.792969-9.75 24.070312-16.324219 38.367187-18.996094 4.5625 3.878906 9.445313 7.363281 14.601563 10.417968zm70.617187 44.136718c-28.277344-.035156-51.539062-22.28125-52.839844-50.527343 11.605469 4.203125 23.851563 6.367187 36.191407 6.390625h33.371093c12.339844-.023438 24.585938-2.1875 36.191407-6.390625-1.300781 28.273437-24.605469 50.53125-52.914063 50.527343zm97.105469-17.65625c-14.625 0-26.484375-11.855468-26.484375-26.480468v-14.644532c5.152344-3.054687 10.039062-6.539062 14.601562-10.417968 14.296876 2.671875 27.574219 9.246094 38.367188 18.996094v6.066406c0 14.625-11.859375 26.480468-26.484375 26.480468zm0 0"/><path d="m61.792969 317.792969h17.65625v17.65625h-17.65625zm0 0"/><path d="m256 317.792969h17.65625v17.65625h-17.65625zm0 0"/></svg>